<?xml version="1.0" encoding="utf-8"?>
<!-- Generator: Adobe Illustrator 16.0.0, SVG Export Plug-In . SVG Version: 6.00 Build 0)  -->
<!DOCTYPE svg PUBLIC "-//W3C//DTD SVG 1.1//EN" "http://www.w3.org/Graphics/SVG/1.1/DTD/svg11.dtd">
<svg version="1.1" id="icon_x5F_ux" xmlns="http://www.w3.org/2000/svg" xmlns:xlink="http://www.w3.org/1999/xlink" x="0px"
	 y="0px" width="124px" height="124px" viewBox="0 0 124 124" enable-background="new 0 0 124 124" xml:space="preserve">
<g>
	<polygon fill="#F49D17" points="42.55,95.541 26.26,79.291 76.5,29.18 92.779,45.42 	"/>
	<polygon fill="#F49D17" points="12.5,109.5 24.43,81.121 40.71,97.371 	"/>
	<path fill="#F49D17" d="M99.59,38.641l6.54-6.53c4.49-4.48,4.49-11.76,0-16.24c-4.5-4.49-11.79-4.49-16.29,0l-6.54,6.521
		L99.59,38.641z"/>
	<path fill="#F49D17" d="M92.979,42.601l-13.51-13.48c-1.07-1.06-1.07-2.78,0-3.84c1.06-1.07,2.79-1.07,3.85,0L96.83,38.761
		c1.069,1.06,1.069,2.78,0,3.84C95.77,43.66,94.04,43.66,92.979,42.601z"/>
</g>
</svg>
