<?xml version="1.0" encoding="utf-8"?>
<!-- Generator: Adobe Illustrator 16.0.0, SVG Export Plug-In . SVG Version: 6.00 Build 0)  -->
<!DOCTYPE svg PUBLIC "-//W3C//DTD SVG 1.1//EN" "http://www.w3.org/Graphics/SVG/1.1/DTD/svg11.dtd">
<svg version="1.1" id="Capa_1" xmlns="http://www.w3.org/2000/svg" xmlns:xlink="http://www.w3.org/1999/xlink" x="0px" y="0px"
	 width="120px" height="42px" viewBox="0 0 120 42" enable-background="new 0 0 120 42" xml:space="preserve">
<g>
	<path fill-rule="evenodd" clip-rule="evenodd" fill="#FFFFFF" d="M41.032,21.162c0,1.08-0.94,2.12-2.47,2.12
		c-0.97,0-1.56-0.54-1.56-1.2c0-0.88,0.63-1.26,1.81-1.44l1.01-0.17c0.33-0.05,0.91-0.16,1.21-0.46V21.162z M43.852,17.202
		c0-2.12-1.87-3.03-4.57-3.03c-2.88,0-4.45,1.49-4.45,2.66c0,0.61,0.47,1.13,1.18,1.13c1.12,0,1.18-1.61,3.26-1.61
		c0.94,0,1.76,0.36,1.76,1.2c0,0.85-0.53,1.02-1.21,1.09l-1.71,0.2c-2.15,0.27-3.93,0.95-3.93,3.38c0,1.85,1.58,2.99,3.18,2.99
		c1.48,0,2.75-0.44,3.85-1.71c0.04,0.91,0.44,1.71,1.65,1.71c0.68,0,1.28-0.46,1.28-1.12c0-0.47-0.29-0.75-0.29-1.97V17.202z"/>
	<path fill="#FFFFFF" d="M44.882,16.452c-0.07-0.24-0.17-0.56-0.17-0.75c0-1.04,0.69-1.53,1.37-1.53c1.05,0,1.32,0.93,1.4,1.23
		l1.89,6.64h0.04l1.88-6.64c0.08-0.3,0.35-1.23,1.41-1.23c0.67,0,1.37,0.49,1.37,1.53c0,0.19-0.11,0.51-0.18,0.75l-2.65,7.72
		c-0.28,0.78-0.45,1.04-1.85,1.04c-1.41,0-1.58-0.26-1.85-1.04L44.882,16.452z"/>
	<path fill-rule="evenodd" clip-rule="evenodd" fill="#FFFFFF" d="M61.262,21.162c0,1.08-0.94,2.12-2.48,2.12
		c-0.96,0-1.56-0.54-1.56-1.2c0-0.88,0.63-1.26,1.81-1.44l1.02-0.17c0.33-0.05,0.9-0.16,1.21-0.46V21.162z M64.072,17.202
		c0-2.12-1.86-3.03-4.56-3.03c-2.89,0-4.46,1.49-4.46,2.66c0,0.61,0.48,1.13,1.19,1.13c1.12,0,1.17-1.61,3.25-1.61
		c0.95,0,1.77,0.36,1.77,1.2c0,0.85-0.54,1.02-1.21,1.09l-1.71,0.2c-2.16,0.27-3.92,0.95-3.92,3.38c0,1.85,1.57,2.99,3.17,2.99
		c1.48,0,2.75-0.44,3.84-1.71c0.05,0.91,0.44,1.71,1.66,1.71c0.67,0,1.27-0.46,1.27-1.12c0-0.47-0.29-0.75-0.29-1.97V17.202z"/>
	<path fill="#FFFFFF" d="M65.922,15.642c0-0.88,0.38-1.47,1.27-1.47c0.88,0,1.27,0.59,1.27,1.47v0.39h0.04
		c0.78-1.09,1.81-1.86,3.4-1.86c1.69,0,3.54,0.89,3.54,3.87v5.7c0,0.79-0.31,1.47-1.4,1.47c-1.1,0-1.41-0.68-1.41-1.47v-5.12
		c0-1.18-0.56-2.03-1.77-2.03c-0.97,0-2.13,0.85-2.13,2.32v4.83c0,0.79-0.31,1.47-1.41,1.47c-1.09,0-1.4-0.68-1.4-1.47V15.642z"/>
	<path fill-rule="evenodd" clip-rule="evenodd" fill="#FFFFFF" d="M83.622,21.162c0,1.08-0.94,2.12-2.48,2.12
		c-0.96,0-1.56-0.54-1.56-1.2c0-0.88,0.63-1.26,1.81-1.44l1.02-0.17c0.33-0.05,0.9-0.16,1.21-0.46V21.162z M86.432,17.202
		c0-2.12-1.87-3.03-4.56-3.03c-2.89,0-4.46,1.49-4.46,2.66c0,0.61,0.48,1.13,1.19,1.13c1.11,0,1.17-1.61,3.25-1.61
		c0.94,0,1.77,0.36,1.77,1.2c0,0.85-0.54,1.02-1.21,1.09l-1.71,0.2c-2.16,0.27-3.93,0.95-3.93,3.38c0,1.85,1.58,2.99,3.17,2.99
		c1.49,0,2.76-0.44,3.86-1.71c0.03,0.91,0.44,1.71,1.65,1.71c0.67,0,1.27-0.46,1.27-1.12c0-0.47-0.29-0.75-0.29-1.97V17.202z"/>
	<path fill-rule="evenodd" clip-rule="evenodd" fill="#FFFFFF" d="M90.662,18.732c0-1.36,0.44-3.26,2.23-3.26
		c1.72-0.02,2.25,1.75,2.25,3.26c0,1.67-0.61,3.19-2.25,3.19C91.392,21.882,90.662,20.462,90.662,18.732z M97.802,10.682
		c0-0.97-0.56-1.47-1.4-1.47c-0.85,0-1.41,0.5-1.41,1.47v3.98h-0.04c-0.56-0.94-1.52-1.49-2.77-1.49c-2.97,0-4.33,2.64-4.33,5.46
		c0,3.79,2.06,5.58,4.41,5.58c1.36,0,2.5-0.6,2.96-1.85h0.04v0.47c0,0.9,0.44,1.38,1.27,1.38c0.87,0,1.27-0.48,1.27-1.38V10.682z"/>
	<path fill-rule="evenodd" clip-rule="evenodd" fill="#FFFFFF" d="M101.842,18.572c0.31-1.44,1.16-2.34,2.56-2.34
		c1.25,0,2.21,0.98,2.36,2.34H101.842z M108.192,20.252c0.94,0,1.24-0.26,1.24-1.26c0-2.42-1.85-4.82-5.09-4.82
		c-3.33,0-5.31,2.3-5.31,5.72c0,2.55,1.48,5.32,5.41,5.32c1.69,0,4.4-0.82,4.4-2.59c0-0.54-0.47-1.14-1.15-1.14
		c-1.14,0-1.14,1.44-3.25,1.44c-1.64,0-2.6-1.12-2.6-2.67H108.192z"/>
	<path fill-rule="evenodd" clip-rule="evenodd" fill="#FFFFFF" d="M109.972,13.082c0-0.98,0.71-1.7,1.6-1.7s1.59,0.72,1.59,1.7
		s-0.7,1.71-1.59,1.71S109.972,14.062,109.972,13.082z M111.572,15.132c1.07,0,1.98-0.87,1.98-2.05c0-1.18-0.91-2.05-1.98-2.05
		c-1.08,0-1.99,0.87-1.99,2.05C109.582,14.262,110.492,15.132,111.572,15.132z M111.162,13.242h0.39l0.6,1.02h0.38l-0.64-1.04
		c0.33-0.04,0.59-0.22,0.59-0.65c0-0.47-0.27-0.67-0.8-0.67h-0.86v2.36h0.34V13.242z M111.162,12.942v-0.74h0.47
		c0.23,0,0.49,0.06,0.49,0.35c0,0.37-0.26,0.39-0.55,0.39H111.162z"/>
	<path fill="#FFFFFF" d="M15.122,24.222c-0.87,0-1.57,0.73-1.57,1.63s0.7,1.64,1.57,1.64h15.63c0.86,0,1.56-0.74,1.56-1.64
		s-0.7-1.63-1.56-1.63H15.122z"/>
	<path fill="#FFFFFF" d="M5.142,13.832c-0.07,0.9,0.56,1.69,1.42,1.78c0.86,0.08,1.63-0.59,1.7-1.49c0.28-3.3,2.58-4.97,6.83-4.97
		c5.16,0,5.88,1.95,5.88,4.06v3.55c-1.72-1.22-3.72-1.96-5.86-1.96c-5.82,0-10.56,4.96-10.56,11.03c0,6.09,4.74,11.04,10.56,11.04
		c3.54,0,6.81-1.83,8.77-4.91c0.48-0.74,0.28-1.76-0.44-2.26c-0.72-0.5-1.69-0.3-2.17,0.45c-1.37,2.16-3.67,3.44-6.16,3.44
		c-4.1,0-7.43-3.48-7.43-7.76s3.33-7.75,7.43-7.75c2.46,0,4.75,1.27,6.13,3.38c0.38,0.6,1.1,0.87,1.75,0.65
		c0.66-0.21,1.11-0.84,1.11-1.56v-7.34c0-3.35-1.57-7.34-9.01-7.34C9.202,5.872,5.572,8.772,5.142,13.832z"/>
	<path fill-rule="evenodd" clip-rule="evenodd" fill="#FFFFFF" d="M36.432,30.242c-0.2,0-0.39,0.01-0.54,0.02v2.14
		c0.09,0.01,0.27,0.02,0.5,0.02c0.84,0,1.35-0.45,1.35-1.12C37.742,30.562,37.302,30.242,36.432,30.242z M37.942,36.132l-2.01-2.91
		h-0.04v2.91h-1.04v-6.74c0.46-0.03,1-0.04,1.72-0.04c1.34,0,2.26,0.49,2.26,1.83c0,1.08-0.78,1.77-1.83,1.89l0.55,0.72l1.7,2.34
		H37.942z"/>
	<path fill-rule="evenodd" clip-rule="evenodd" fill="#FFFFFF" d="M41.672,31.862c-0.57,0-0.97,0.44-1.06,1.11h2.02
		C42.652,32.292,42.282,31.862,41.672,31.862z M43.622,33.712h-3.03c-0.02,1.15,0.46,1.67,1.41,1.67c0.49,0,0.99-0.12,1.38-0.32
		l0.1,0.85c-0.48,0.21-1.06,0.32-1.64,0.32c-1.48,0-2.3-0.8-2.3-2.54c0-1.5,0.79-2.62,2.17-2.62c1.36,0,1.94,0.97,1.94,2.15
		C43.652,33.362,43.642,33.522,43.622,33.712z"/>
	<path fill-rule="evenodd" clip-rule="evenodd" fill="#FFFFFF" d="M45.512,36.232c-0.35,0-0.7-0.04-1-0.1l0.03-0.91
		c0.29,0.09,0.67,0.16,1.03,0.16c0.55,0,0.94-0.25,0.94-0.66c0-0.99-2.09-0.4-2.09-2.11c0-0.86,0.67-1.54,1.96-1.54
		c0.28,0,0.6,0.04,0.89,0.09l-0.03,0.87c-0.29-0.09-0.62-0.14-0.92-0.14c-0.57,0-0.85,0.24-0.85,0.62c0,0.96,2.11,0.47,2.11,2.11
		C47.582,35.552,46.782,36.232,45.512,36.232z"/>
	<path fill-rule="evenodd" clip-rule="evenodd" fill="#FFFFFF" d="M51.552,37.132c0-0.26,0.02-0.69,0.06-0.97v-0.01
		c-0.28,0.64-0.86,1.08-1.66,1.08c-1.08,0-1.41-0.71-1.41-1.59v-3.47h1.01v3.19c0,0.62,0.16,0.98,0.71,0.98
		c0.71,0,1.24-0.79,1.24-1.77v-2.4h1.02v4.96H51.552z"/>
	<rect x="53.622" y="28.842" fill-rule="evenodd" clip-rule="evenodd" fill="#FFFFFF" width="1.02" height="7.29"/>
	<path fill-rule="evenodd" clip-rule="evenodd" fill="#FFFFFF" d="M57.572,36.222c-1.01,0-1.32-0.41-1.32-1.52v-2.7h-0.91v-0.83
		h0.91v-1.58l1.02-0.29v1.87h1.25v0.83h-1.25v2.37c0,0.74,0.15,0.94,0.63,0.94c0.21,0,0.44-0.03,0.62-0.08v0.88
		C58.242,36.172,57.892,36.222,57.572,36.222z"/>
	<path fill-rule="evenodd" clip-rule="evenodd" fill="#FFFFFF" d="M60.322,36.232c-0.35,0-0.7-0.04-1-0.1l0.03-0.91
		c0.29,0.09,0.67,0.16,1.03,0.16c0.55,0,0.94-0.25,0.94-0.66c0-0.99-2.09-0.4-2.09-2.11c0-0.86,0.67-1.54,1.96-1.54
		c0.28,0,0.6,0.04,0.89,0.09l-0.03,0.87c-0.29-0.09-0.62-0.14-0.93-0.14c-0.56,0-0.84,0.24-0.84,0.62c0,0.96,2.11,0.47,2.11,2.11
		C62.392,35.552,61.592,36.232,60.322,36.232z"/>
	<path fill-rule="evenodd" clip-rule="evenodd" fill="#FFFFFF" d="M67.212,30.242c-0.2,0-0.39,0.01-0.54,0.02v2.14
		c0.09,0.01,0.27,0.02,0.5,0.02c0.84,0,1.35-0.45,1.35-1.12C68.522,30.562,68.082,30.242,67.212,30.242z M68.722,36.132l-2.01-2.91
		h-0.04v2.91h-1.05v-6.74c0.47-0.03,1.01-0.04,1.73-0.04c1.34,0,2.26,0.49,2.26,1.83c0,1.08-0.78,1.77-1.83,1.89l0.55,0.72l1.7,2.34
		H68.722z"/>
	<path fill-rule="evenodd" clip-rule="evenodd" fill="#FFFFFF" d="M72.452,31.862c-0.57,0-0.97,0.44-1.06,1.11h2.02
		C73.432,32.292,73.052,31.862,72.452,31.862z M74.402,33.712h-3.03c-0.03,1.15,0.46,1.67,1.41,1.67c0.48,0,0.99-0.12,1.38-0.32
		l0.1,0.85c-0.48,0.21-1.06,0.32-1.65,0.32c-1.48,0-2.29-0.8-2.29-2.54c0-1.5,0.79-2.62,2.17-2.62c1.36,0,1.94,0.97,1.94,2.15
		C74.432,33.362,74.422,33.522,74.402,33.712z"/>
	<path fill-rule="evenodd" clip-rule="evenodd" fill="#FFFFFF" d="M77.972,33.882c-1.49,0-1.81,0.47-1.81,0.9
		c0,0.37,0.25,0.61,0.65,0.61c0.7,0,1.16-0.7,1.16-1.4V33.882z M78.042,36.132c0-0.32,0.01-0.65,0.05-0.92l-0.01-0.01
		c-0.23,0.59-0.82,1.03-1.58,1.03c-0.81,0-1.33-0.48-1.33-1.27c0-1.14,1.09-1.79,2.8-1.79v-0.32c0-0.62-0.25-0.94-0.99-0.94
		c-0.44,0-1.01,0.14-1.41,0.4l-0.1-0.91c0.47-0.19,1.06-0.33,1.67-0.33c1.45,0,1.86,0.66,1.86,1.68v2.02c0,0.43,0.01,0.94,0.02,1.36
		H78.042z"/>
	<rect x="80.092" y="28.842" fill-rule="evenodd" clip-rule="evenodd" fill="#FFFFFF" width="1.02" height="7.29"/>
	<path fill-rule="evenodd" clip-rule="evenodd" fill="#FFFFFF" d="M82.212,36.132v-4.96h1.02v4.96H82.212z M82.722,30.432
		c-0.36,0-0.66-0.3-0.66-0.67c0-0.37,0.3-0.67,0.66-0.67c0.35,0,0.65,0.29,0.65,0.67C83.372,30.132,83.072,30.432,82.722,30.432z"/>
	<path fill-rule="evenodd" clip-rule="evenodd" fill="#FFFFFF" d="M84.182,37.132v-0.76l2.11-3.26c-0.24,0.01-0.66,0.02-1.15,0.02
		h-0.92v-0.96h3.28v0.75l-2.08,3.25c0.24-0.01,0.8-0.02,1.19-0.02h0.93v0.98H84.182z"/>
	<path fill-rule="evenodd" clip-rule="evenodd" fill="#FFFFFF" d="M90.352,31.862c-0.57,0-0.97,0.44-1.06,1.11h2.02
		C91.332,32.292,90.962,31.862,90.352,31.862z M92.302,33.712h-3.02c-0.03,1.15,0.45,1.67,1.4,1.67c0.49,0,0.99-0.12,1.38-0.32
		l0.1,0.85c-0.48,0.21-1.06,0.32-1.64,0.32c-1.48,0-2.3-0.8-2.3-2.54c0-1.5,0.79-2.62,2.17-2.62c1.36,0,1.94,0.97,1.94,2.15
		C92.332,33.362,92.322,33.522,92.302,33.712z"/>
	<path fill-rule="evenodd" clip-rule="evenodd" fill="#FFFFFF" d="M96.232,32.032c-0.26-0.06-0.51-0.09-0.76-0.09
		c-0.81,0-1.36,0.52-1.36,1.86c0,0.99,0.29,1.55,0.94,1.55c0.76,0,1.18-0.94,1.18-1.78V32.032z M96.282,36.132
		c0-0.26,0.01-0.65,0.06-0.93h-0.02c-0.26,0.61-0.81,1.03-1.54,1.03c-1.17,0-1.75-0.9-1.75-2.33c0-1.71,0.94-2.81,2.48-2.81
		c0.23,0,0.46,0.02,0.72,0.04v-2.29h1.01v7.29H96.282z"/>
</g>
</svg>
