<?xml version="1.0" encoding="utf-8"?>
<!-- Generator: Adobe Illustrator 16.0.0, SVG Export Plug-In . SVG Version: 6.00 Build 0)  -->
<!DOCTYPE svg PUBLIC "-//W3C//DTD SVG 1.1//EN" "http://www.w3.org/Graphics/SVG/1.1/DTD/svg11.dtd">
<svg version="1.1" xmlns="http://www.w3.org/2000/svg" xmlns:xlink="http://www.w3.org/1999/xlink" x="0px" y="0px"
	 width="121.428px" height="104.286px" viewBox="0 0 121.428 104.286" enable-background="new 0 0 121.428 104.286"
	 xml:space="preserve">
<g id="xdlogoBottom">
	<g>
		<polygon fill-rule="evenodd" clip-rule="evenodd" fill="#FFFFFF" points="36.88,54.532 49.46,67.013 62.691,53.892 50.313,41.633 
			23.506,41.705 11.07,54.032 24.22,67.082 		"/>
		<polygon fill-rule="evenodd" clip-rule="evenodd" fill="#FFFFFF" points="75.174,41.566 62.71,53.892 75.871,66.942 
			88.541,54.412 88.57,54.442 101.617,41.495 		"/>
		<path fill-rule="evenodd" clip-rule="evenodd" fill="#FFFFFF" d="M29.44,79.731l5.6,1.57l1.635-1.62l0.505,0.501l3.75-3.721
			c1.07-1.07,1.75-2.34,1.75-3.689c0.01-2.311-1.62-3.681-3.17-5.221c-1.55-1.539-2.85-3.06-5.18-3.06
			c-1.36,0.01-2.64,0.67-3.72,1.739l-3.589,3.561l-0.202-0.8l-2.29,2.271l1.52,5.109l-5.14-1.52l-2.31,2.289l8.05,1.99l2.07,8.44
			l2.31-2.3L29.44,79.731z M32.22,68.202c0.69-0.689,1.38-0.939,2.15-0.87c0.84,0.09,1.55,0.681,3.12,2.229
			c1.56,1.551,2.24,2.341,2.33,3.17c0.07,0.771-0.18,1.451-0.879,2.141l-1.53,1.52l-6.72-6.67L32.22,68.202z M27.129,70.219
			l8.424,8.351l-6.723-1.607L27.129,70.219z"/>
		<polygon fill-rule="evenodd" clip-rule="evenodd" fill="#FFFFFF" points="32.93,87.202 33.77,89.582 31.36,88.752 30.78,89.332 
			33.78,92.302 34.37,91.722 32.62,89.992 34.33,90.542 34.73,90.142 34.17,88.452 35.92,90.183 36.51,89.592 33.51,86.622 		"/>
		<path fill-rule="evenodd" clip-rule="evenodd" fill="#FFFFFF" d="M36.17,84.592c-0.42,0-0.8,0.14-1.14,0.48
			c-0.34,0.34-0.49,0.71-0.49,1.13c0,0.6,0.38,0.97,0.9,1.48c0.52,0.51,0.879,0.89,1.49,0.89c0.42,0,0.8-0.14,1.15-0.48
			c0.34-0.34,0.48-0.72,0.48-1.13c0-0.609-0.38-0.97-0.9-1.49C37.15,84.962,36.78,84.592,36.17,84.592z M37.55,87.572
			c-0.16,0.159-0.36,0.229-0.54,0.22c-0.24-0.01-0.41-0.12-0.98-0.689c-0.58-0.57-0.69-0.74-0.7-0.98
			c-0.01-0.18,0.06-0.38,0.22-0.54c0.16-0.149,0.36-0.22,0.54-0.21c0.24,0.01,0.41,0.12,0.99,0.689c0.57,0.57,0.68,0.74,0.69,0.98
			C37.78,87.222,37.71,87.412,37.55,87.572z"/>
		<polygon fill-rule="evenodd" clip-rule="evenodd" fill="#FFFFFF" points="38.32,81.862 40.15,83.683 37.12,83.042 36.6,83.562 
			39.6,86.532 40.18,85.952 38.34,84.122 41.38,84.763 41.9,84.242 38.9,81.272 		"/>
		<polygon fill-rule="evenodd" clip-rule="evenodd" fill="#FFFFFF" points="41.9,79.342 41.38,78.822 39.21,80.972 39.74,81.481 
			40.52,80.702 43,83.162 43.58,82.572 41.11,80.122 		"/>
		<polygon fill-rule="evenodd" clip-rule="evenodd" fill="#FFFFFF" points="44.75,80.392 44.02,79.672 45.21,78.492 44.69,77.972 
			43.5,79.152 42.79,78.452 44.19,77.072 43.67,76.552 41.69,78.522 44.68,81.492 46.66,79.522 46.14,79.002 		"/>
		<path fill-rule="evenodd" clip-rule="evenodd" fill="#FFFFFF" d="M47.15,74.922c-0.5-0.5-1.28-0.55-1.89,0.06l-1.18,1.171
			l2.99,2.97l0.59-0.59l-1.2-1.18l0.43-0.42l1.78,0.6l0.68-0.67l-1.96-0.62C47.57,75.853,47.57,75.332,47.15,74.922z M46.53,76.322
			l-0.55,0.54l-0.79-0.78l0.55-0.55c0.26-0.25,0.59-0.26,0.82-0.03C46.79,75.731,46.79,76.062,46.53,76.322z"/>
		<path fill-rule="evenodd" clip-rule="evenodd" fill="#FFFFFF" d="M49.75,72.342c-0.5-0.5-1.28-0.55-1.9,0.061l-1.18,1.17l3,2.97
			l0.59-0.58l-1.2-1.189l0.43-0.42l1.78,0.6l0.68-0.67l-1.97-0.61C50.17,73.272,50.17,72.763,49.75,72.342z M49.13,73.742
			l-0.561,0.55l-0.79-0.79l0.56-0.55c0.26-0.25,0.59-0.26,0.82-0.03C49.39,73.152,49.39,73.481,49.13,73.742z"/>
		<polygon fill-rule="evenodd" clip-rule="evenodd" fill="#FFFFFF" points="52.33,72.862 51.61,72.142 52.79,70.962 52.27,70.452 
			51.08,71.622 50.38,70.933 51.78,69.542 51.26,69.032 49.27,70.992 52.27,73.962 54.25,72.002 53.73,71.481 		"/>
		<polygon fill-rule="evenodd" clip-rule="evenodd" fill="#FFFFFF" points="53.72,66.592 53.08,67.222 53.73,68.972 51.96,68.332 
			51.32,68.962 54,69.812 55.22,71.032 55.811,70.452 54.58,69.231 		"/>
		<path fill-rule="evenodd" clip-rule="evenodd" fill="#FFFFFF" d="M58.13,63.212l0.83,2.391l-2.4-0.83l-0.581,0.569l2.426,2.409
			c-0.109-0.001-0.212-0.006-0.336-0.039c-0.12-0.029-0.259-0.13-0.42-0.29l-1.78-1.77c-0.16-0.15-0.26-0.29-0.29-0.41
			c-0.05-0.19-0.05-0.31-0.05-0.511H54.8c0,0.271-0.01,0.541,0.06,0.801c0.07,0.26,0.25,0.46,0.43,0.64l1.84,1.82
			c0.18,0.19,0.38,0.36,0.65,0.43c0.26,0.07,0.53,0.06,0.81,0.06v-0.547l0.38,0.377l0.59-0.58l-1.74-1.729l1.711,0.55l0.399-0.39
			l-0.56-1.7l1.74,1.73l0.59-0.58l-2.99-2.971L58.13,63.212z"/>
		<polygon fill-rule="evenodd" clip-rule="evenodd" fill="#FFFFFF" points="61.361,59.013 60.691,59.672 61.13,61.152 59.64,60.722 
			58.97,61.382 61.31,61.962 61.91,64.412 62.58,63.742 62.111,62.132 63.74,62.592 64.41,61.922 61.941,61.332 		"/>
		<path fill-rule="evenodd" clip-rule="evenodd" fill="#FFFFFF" d="M64.77,60.422l-1.84-1.819c-0.181-0.19-0.38-0.36-0.649-0.431
			c-0.261-0.069-0.531-0.06-0.801-0.06l-0.01,0.729c0.21,0,0.32-0.01,0.52,0.04c0.121,0.04,0.26,0.131,0.42,0.29l1.781,1.771
			c0.159,0.16,0.26,0.3,0.289,0.41c0.051,0.199,0.04,0.31,0.04,0.51h0.74c0-0.271,0.01-0.54-0.06-0.801
			C65.13,60.802,64.951,60.603,64.77,60.422z"/>
		<polygon fill-rule="evenodd" clip-rule="evenodd" fill="#FFFFFF" points="36.58,60.742 35.68,61.622 35.9,61.842 36.23,61.522 
			37.25,62.532 37.49,62.292 36.47,61.272 36.79,60.952 		"/>
		<polygon fill-rule="evenodd" clip-rule="evenodd" fill="#FFFFFF" points="39.07,60.722 37.83,59.492 37.59,59.731 37.94,60.722 
			36.95,60.372 36.71,60.612 37.94,61.842 38.19,61.603 37.47,60.882 38.17,61.112 38.34,60.952 38.11,60.252 38.83,60.962 		"/>
	</g>
</g>
<g id="xdlogoTop">
	<polygon fill="#EFEEEE" points="50.1,41.422 62.76,28.872 49.6,15.832 36.95,28.372 24.36,15.902 11.14,29.012 23.72,41.492 
		23.506,41.705 50.313,41.633 	"/>
	<polygon fill="#EFEEEE" points="101.791,41.322 101.781,41.312 101.81,41.282 88.65,28.232 88.621,28.262 76.01,15.762 
		62.781,28.872 75.38,41.362 75.174,41.566 101.617,41.495 	"/>
</g>
<g id="xdlogoTriangles">
	<polygon opacity="0.3" fill="#FFFFFF" points="75.98,66.942 63.361,66.972 69.541,60.842 	"/>
	<polygon opacity="0.3" fill="#FFFFFF" points="62.27,15.832 49.65,15.862 55.8,21.962 	"/>
	<polyline opacity="0.3" fill="#FFFFFF" points="62.781,28.872 62.88,28.982 75.38,41.362 50.1,41.422 	"/>
</g>
</svg>
