<?xml version="1.0" encoding="utf-8"?>
<!-- Generator: Adobe Illustrator 15.0.0, SVG Export Plug-In . SVG Version: 6.00 Build 0)  -->
<!DOCTYPE svg PUBLIC "-//W3C//DTD SVG 1.1//EN" "http://www.w3.org/Graphics/SVG/1.1/DTD/svg11.dtd">
<svg version="1.1" id="Capa_1" xmlns="http://www.w3.org/2000/svg" xmlns:xlink="http://www.w3.org/1999/xlink" x="0px" y="0px"
	 width="47.375px" height="165.333px" viewBox="0 0 47.375 165.333" enable-background="new 0 0 47.375 165.333"
	 xml:space="preserve">
<g>
	<polygon fill="#FFFFFF" points="27.283,136.57 22.604,141.26 31.154,149.831 35.833,145.129 	"/>
	<polygon fill="#FFFFFF" points="21.243,142.629 15.194,136.57 6.833,144.95 12.874,151.01 15.384,153.51 21.424,159.57 
		29.793,151.19 23.743,145.129 	"/>
</g>
<g>
	<g>
		<path fill="#FFFFFF" d="M15.533,97.31c0,1.569-1.27,2.84-2.82,2.84c-1.56,0-2.83-1.271-2.83-2.84s1.27-2.851,2.83-2.851
			C14.263,94.459,15.533,95.741,15.533,97.31z"/>
	</g>
	<g>
		<path fill="#FFFFFF" d="M24.563,94.831c0,1.789-1.44,3.25-3.23,3.25s-3.23-1.461-3.23-3.25c0-1.801,1.44-3.261,3.23-3.261
			S24.563,93.03,24.563,94.831z"/>
	</g>
	<g>
		<path fill="#FFFFFF" d="M32.783,97.31c0,1.569-1.27,2.84-2.82,2.84c-1.56,0-2.83-1.271-2.83-2.84s1.27-2.851,2.83-2.851
			C31.513,94.459,32.783,95.741,32.783,97.31z"/>
	</g>
	<path fill="#FFFFFF" d="M15.583,102.27h-5.75v15.3h5.75V102.27z M14.354,103.51v12.82h-3.29v-12.82H14.354z"/>
	<path fill="#FFFFFF" d="M25.033,100.2h-7.4v17.37h7.4V100.2z M23.793,101.44v14.891h-4.92V101.44H23.793z"/>
	<path fill="#FFFFFF" d="M32.833,102.27h-5.75v15.3h5.75V102.27z M31.604,103.51v12.82h-3.29v-12.82H31.604z"/>
</g>
<g>
	<path fill="#FFFFFF" d="M14.833,24.28c0,1.82-1.46,3.29-3.25,3.29s-3.25-1.47-3.25-3.29c0-1.811,1.46-3.28,3.25-3.28
		S14.833,22.47,14.833,24.28z"/>
	<path fill="#FFFFFF" d="M34.333,24.28c0,1.82-1.46,3.29-3.25,3.29s-3.25-1.47-3.25-3.29c0-1.811,1.46-3.28,3.25-3.28
		S34.333,22.47,34.333,24.28z"/>
	<path fill="#FFFFFF" d="M24.583,7.86c0,1.81-1.46,3.28-3.25,3.28s-3.25-1.47-3.25-3.28c0-1.82,1.46-3.29,3.25-3.29
		S24.583,6.04,24.583,7.86z"/>
	<g>
		<polygon fill="#FFFFFF" points="14.473,20.49 13.543,19.92 18.414,11.72 19.344,12.28 		"/>
	</g>
	<g>
		<rect x="16.273" y="23.92" fill="#FFFFFF" width="10.12" height="1.09"/>
	</g>
	<g>
		<polygon fill="#FFFFFF" points="27.194,20.49 22.323,12.28 23.253,11.72 28.124,19.92 		"/>
	</g>
</g>
<path fill="#FFFFFF" d="M32.456,64.07c0.265-0.967,0.418-1.98,0.418-3.03c0-5.08-3.309-9.392-7.891-10.926
	c-0.057-1.97-1.665-3.544-3.649-3.544c-1.979,0-3.583,1.567-3.648,3.531c-4.599,1.522-7.932,5.845-7.932,10.939
	c0,1.057,0.155,2.076,0.423,3.048c-1.096,0.63-1.843,1.796-1.843,3.152c0,2.01,1.64,3.64,3.66,3.64c0.838,0,1.6-0.292,2.216-0.764
	c1.963,1.532,4.426,2.454,7.104,2.454c2.691,0,5.162-0.927,7.127-2.468c0.618,0.48,1.386,0.778,2.233,0.778
	c2.02,0,3.66-1.63,3.66-3.64C34.333,65.87,33.571,64.694,32.456,64.07z M15.049,69.224c0.374-0.572,0.595-1.251,0.595-1.984
	c0-2.021-1.63-3.65-3.65-3.65c-0.229,0-0.452,0.027-0.67,0.067c-0.221-0.837-0.35-1.711-0.35-2.617c0-4.481,2.883-8.294,6.89-9.717
	c0.472,1.467,1.839,2.537,3.47,2.537c1.626,0,2.99-1.064,3.466-2.525c3.996,1.431,6.864,5.236,6.864,9.705
	c0,0.905-0.129,1.778-0.35,2.614c-0.209-0.037-0.421-0.064-0.64-0.064c-2.02,0-3.65,1.63-3.65,3.65c0,0.726,0.218,1.399,0.585,1.967
	c-1.746,1.338-3.925,2.143-6.295,2.143C18.958,71.35,16.79,70.552,15.049,69.224z"/>
</svg>
