<?xml version="1.0" encoding="utf-8"?>
<!-- Generator: Adobe Illustrator 16.0.0, SVG Export Plug-In . SVG Version: 6.00 Build 0)  -->
<!DOCTYPE svg PUBLIC "-//W3C//DTD SVG 1.1//EN" "http://www.w3.org/Graphics/SVG/1.1/DTD/svg11.dtd">
<svg version="1.1" xmlns="http://www.w3.org/2000/svg" xmlns:xlink="http://www.w3.org/1999/xlink" x="0px" y="0px" width="38px"
	 height="37.625px" viewBox="0 0 38 37.625" enable-background="new 0 0 38 37.625" xml:space="preserve">
<g id="pen">
	<path fill="#343434" d="M22.854,31.797h-1.235c-0.029-1.033,0.17-3.9,2.848-6.942c0,0-4.194-5.377-5.84-8.674v-1.229
		c0-0.168-0.136-0.306-0.302-0.306H17.72c-0.166,0-0.301,0.137-0.301,0.306v1.039c-0.574,1.452-2.386,5.606-5.436,8.863
		c0,0,2.765,2.932,3.187,6.943h-1.173c-0.224,0-0.403,0.182-0.403,0.406v0.41c0,0.225,0.18,0.407,0.403,0.407h8.856
		c0.224,0,0.403-0.183,0.403-0.407v-0.41C23.257,31.979,23.077,31.797,22.854,31.797z M20.445,31.797H16.37
		c-0.008-0.061-0.018-0.127-0.027-0.2l4.153-0.63C20.472,31.231,20.454,31.508,20.445,31.797z M20.583,30.25l-4.356,0.66
		c-0.063-0.332-0.148-0.713-0.261-1.133l4.821-0.527C20.706,29.562,20.638,29.896,20.583,30.25z M15.768,29.099
		c-0.414-1.31-1.086-2.851-2.173-4.245c0,0,2.585-3.555,3.825-5.926v6.027c0,0.17,0.137,0.308,0.301,0.308h0.104
		c-0.573,0.096-1.009,0.599-1.009,1.207c0,0.676,0.541,1.226,1.208,1.226c0.666,0,1.207-0.55,1.207-1.226
		c0-0.608-0.437-1.111-1.009-1.207h0.104c0.166,0,0.303-0.138,0.303-0.308v-6.339c1.016,1.832,3.107,5.403,4.629,6.647
		c0,0-1.432,0.866-2.254,3.261L15.768,29.099z"/>
</g>
<g id="anchor">
	<polygon fill="#EB5E1D" points="29.351,13.335 29.351,13.626 6.875,13.626 6.875,13.335 5.721,13.335 5.721,14.497 6.875,14.497 
		6.875,14.206 29.351,14.206 29.351,14.497 30.503,14.497 30.503,13.335 	"/>
</g>
<g id="vector">
	<path fill="#343434" d="M10.867,4.912c0.103,0.563,0.103,1.229,0.205,1.843c0.768,3.892,4.045,5.786,6.913,5.786
		c3.072,0,6.195-2.099,7.016-6.144c0.152-0.666-0.309-1.74,0.666-1.74c0.563,0,0.613,0.512,0.613,0.818
		c0,4.66-3.941,8.244-8.294,8.244c-4.609,0-8.245-3.84-8.245-8.295c0-0.307,0.052-0.819,0.615-0.819
		C10.509,4.604,10.867,4.707,10.867,4.912z"/>
	<path fill="#FFFFFF" stroke="#343434" stroke-miterlimit="10" d="M19.061,12.771v1.997h-1.997v-1.997H19.061z"/>
</g>
</svg>
