<?xml version="1.0" encoding="utf-8"?>
<!-- Generator: Adobe Illustrator 16.0.0, SVG Export Plug-In . SVG Version: 6.00 Build 0)  -->
<!DOCTYPE svg PUBLIC "-//W3C//DTD SVG 1.1//EN" "http://www.w3.org/Graphics/SVG/1.1/DTD/svg11.dtd">
<svg version="1.1" xmlns="http://www.w3.org/2000/svg" xmlns:xlink="http://www.w3.org/1999/xlink" x="0px" y="0px" width="38px"
	 height="37.625px" viewBox="0 0 38 37.625" enable-background="new 0 0 38 37.625" xml:space="preserve">
<g id="notebook_x5F_highlight">
	<rect x="10.096" y="8.292" fill="#A9A9AA" width="15.438" height="1.543"/>
	<rect x="10.096" y="12.041" fill="#A9A9AA" width="7.206" height="5.293"/>
	<rect x="18.329" y="12.041" fill="#A9A9AA" width="7.206" height="5.293"/>
	<polygon fill="#A9A9AA" points="22.339,26.379 10.096,26.379 10.096,27.922 20.843,27.922 	"/>
	<polygon fill="#A9A9AA" points="25.534,23.079 25.534,18.878 10.096,18.878 10.096,24.172 24.476,24.172 	"/>
	<path fill="#9A9BA2" d="M18.128,33.93c0.066,0,0.783-0.33,1.658-0.758l-1.197-1.207c-0.396,0.871-0.736,1.629-0.736,1.689
		C17.853,33.82,17.963,33.93,18.128,33.93z"/>
</g>
<g id="notebook">
	<g>
		<g>
			<path fill="#343434" d="M27.253,28.7c-0.101,0.771-0.629,1.61-1.469,1.61H25.68c-0.363,0.369-0.726,0.736-1.089,1.103h1.304
				c1.158,0,2.536-1.378,2.481-2.866v-1C28.001,27.932,27.628,28.317,27.253,28.7z"/>
			<path fill="#343434" d="M18.141,30.311h-9.23c-0.938,0-1.433-1.049-1.433-1.655v-1.261h0.589
				c-0.099-0.342-0.311-0.633-0.589-0.836v-2.563h0.589c-0.099-0.342-0.311-0.634-0.589-0.837v-2.627h0.589
				c-0.099-0.343-0.311-0.634-0.589-0.837v-2.562h0.589c-0.099-0.343-0.311-0.635-0.589-0.837v-2.564h0.589
				c-0.099-0.342-0.311-0.634-0.589-0.837V10.33h0.589C7.968,9.988,7.755,9.696,7.478,9.493V7.759
				c0.055-0.11,0.055-0.276,0.055-0.386c-0.055-0.607,0.882-1.38,1.488-1.269h16.652c1.104-0.055,1.6,1.047,1.6,1.819v11.823
				c0.064-0.063,0.128-0.127,0.191-0.19c0.303-0.315,0.605-0.657,0.912-1.003V7.813c0-1.323-0.828-2.702-2.592-2.813H8.855
				C7.698,4.89,6.319,6.213,6.375,7.647V9.21c-0.762,0.102-1.352,0.765-1.352,1.573c0,0.805,0.59,1.469,1.352,1.571v0.257
				c-0.762,0.103-1.352,0.766-1.352,1.571c0,0.808,0.59,1.472,1.352,1.573v0.257c-0.762,0.102-1.352,0.766-1.352,1.571
				c0,0.808,0.59,1.471,1.352,1.573v0.254c-0.762,0.103-1.352,0.768-1.352,1.574c0,0.805,0.59,1.469,1.352,1.57v0.321
				c-0.762,0.103-1.352,0.765-1.352,1.571s0.59,1.47,1.352,1.573v0.257c-0.762,0.102-1.352,0.766-1.352,1.57
				c0,0.841,0.641,1.525,1.451,1.582c0.268,0.929,1.073,1.851,2.272,1.982h8.887C17.795,31.047,17.97,30.672,18.141,30.311z
				 M6.375,28.729c-0.393-0.095-0.686-0.451-0.686-0.882c0-0.428,0.293-0.785,0.686-0.879V28.729z M6.375,25.328
				c-0.393-0.094-0.686-0.451-0.686-0.88c0-0.431,0.293-0.787,0.686-0.881V25.328z M6.375,21.865
				c-0.393-0.094-0.686-0.452-0.686-0.88c0-0.431,0.293-0.787,0.686-0.88V21.865z M6.375,18.465
				c-0.393-0.094-0.686-0.451-0.686-0.881c0-0.429,0.293-0.787,0.686-0.881V18.465z M6.375,15.066
				c-0.393-0.094-0.686-0.451-0.686-0.883c0-0.429,0.293-0.786,0.686-0.88V15.066z M6.375,11.664
				c-0.393-0.094-0.686-0.451-0.686-0.88c0-0.429,0.293-0.787,0.686-0.881V11.664z"/>
		</g>
		<path fill="#343434" d="M35.387,17.885c-1.269-1.875-1.765-2.206-3.032-2.206c-0.166,0-0.717-0.055-0.938,0.11
			c-1.489,0.772-2.758,2.537-4.025,3.86c-1.764,1.709-3.475,3.528-5.184,5.293c-0.992,0.993-2.371,2.315-3.088,3.362
			c-0.055,0.057-2.315,4.468-2.315,5.35c0,0.662,0.441,1.379,1.323,1.379c0.827,0,5.405-2.537,5.569-2.702
			c3.143-3.143,6.286-6.45,9.43-9.649c1.488-1.543,2.535-2.26,2.535-3.693C35.663,18.656,35.663,18.215,35.387,17.885z
			 M17.853,33.654c0-0.109,1.104-2.48,1.654-3.693c0.046-0.101,0.096-0.199,0.146-0.3l2.352,2.373
			c-1.463,0.795-3.757,1.896-3.877,1.896C17.963,33.93,17.853,33.82,17.853,33.654z M23.146,31.338
			c-0.083,0.076-0.254,0.188-0.481,0.324l-2.629-2.654c0.33-0.511,0.748-1.02,1.291-1.528c2.779-2.78,5.487-5.739,8.27-8.557
			l2.824,2.849c-0.119,0.119-0.234,0.24-0.342,0.359C29.102,25.219,26.179,28.416,23.146,31.338z M32.941,21.26l-2.832-2.857
			c0.47-0.471,0.942-0.938,1.418-1.399c0.331-0.386,0.441-0.221,0.827-0.221c0.992,0,2.206,1.599,2.206,2.206
			C34.561,19.708,33.747,20.486,32.941,21.26z"/>
	</g>
</g>
</svg>
