<?xml version="1.0" encoding="utf-8"?>
<!-- Generator: Adobe Illustrator 16.0.0, SVG Export Plug-In . SVG Version: 6.00 Build 0)  -->
<!DOCTYPE svg PUBLIC "-//W3C//DTD SVG 1.1//EN" "http://www.w3.org/Graphics/SVG/1.1/DTD/svg11.dtd">
<svg version="1.1" xmlns="http://www.w3.org/2000/svg" xmlns:xlink="http://www.w3.org/1999/xlink" x="0px" y="0px" width="38px"
	 height="37.625px" viewBox="0 0 38 37.625" enable-background="new 0 0 38 37.625" xml:space="preserve">
<g id="bulb_body">
	<path fill="#343434" d="M16.234,14.097c-1.208,0.521-2.173,1.654-2.361,2.886l0.711,0.116c0.127-1.004,0.947-1.943,1.934-2.361
		c0.763-0.326,1.619-0.525,2.332-0.389l0.269-0.665C18.223,13.496,17.173,13.692,16.234,14.097z"/>
	<path fill="#343434" d="M26.814,18.922c0-4.376-3.773-7.658-7.985-7.658c-4.048,0-7.931,3.118-7.931,7.658
		c0,0.602,0.219,1.75,0.437,2.352c0.055,0.109,0.055,0.384,0.164,0.547c1.313,2.406,2.461,5.142,3.61,7.604
		c0.438,0.875,0.93,1.805,1.258,2.735c0.547,1.368,1.531,1.204,2.461,1.204c0.766,0,1.914,0.109,2.352-0.93
		c0.189-0.432,0.383-0.86,0.577-1.289l0.06-0.009v-0.122c1.422-3.111,2.963-6.152,4.342-9.191
		C26.432,21.164,26.814,19.851,26.814,18.922z M15.555,27.758h6.541c-0.133,0.281-0.263,0.565-0.394,0.848l-5.475,0.6
		C16.01,28.736,15.784,28.25,15.555,27.758z M16.558,29.917l4.777-0.522c-0.175,0.381-0.349,0.762-0.522,1.143L17.103,31.1
		C16.936,30.734,16.753,30.338,16.558,29.917z M20.251,31.775c-0.056,0.055-0.056,0.328-0.219,0.383
		c-0.383,0.164-1.039,0.109-1.203,0.109c-0.11,0-0.821,0.108-1.149-0.109c-0.124-0.074-0.214-0.206-0.285-0.354l3.053-0.463
		C20.382,31.486,20.316,31.631,20.251,31.775z M25.174,21.273c-0.383,0.82-0.82,1.695-1.203,2.57
		c-0.508,1.038-1.015,2.098-1.519,3.164h-7.245c-1.324-2.844-2.613-5.607-2.613-5.68c0-0.164-0.328-0.656-0.438-0.984
		c-0.055-0.219-0.109-0.602-0.109-0.711v-1.532c0.602-4.047,3.993-5.688,6.782-5.688c3.555,0,6.837,2.625,6.837,6.454
		C25.666,19.742,25.502,20.617,25.174,21.273z"/>
</g>
<g id="bulb_shine">
	<polygon fill="#EB5E1D" points="18.199,3.917 18.483,3.598 19.008,3.598 19.293,3.917 19.293,7.654 19.008,7.974 18.483,7.974 
		18.199,7.654 	"/>
	<polygon fill="#EB5E1D" points="23.878,5.315 24.296,5.053 24.797,5.212 24.9,5.646 23.257,8.978 22.927,9.131 22.529,8.982 
		22.419,8.667 	"/>
	<polygon fill="#EB5E1D" points="28.693,8.766 29.195,8.671 29.633,8.993 29.589,9.422 26.809,12.008 26.402,12.056 26.027,11.789 
		26.018,11.448 	"/>
	<polygon fill="#EB5E1D" points="9.016,8.766 8.515,8.671 8.078,8.993 8.121,9.422 10.902,12.008 11.307,12.056 11.683,11.789 
		11.692,11.448 	"/>
	<polygon fill="#EB5E1D" points="12.394,5.74 12.482,5.412 12.882,5.217 13.234,5.326 15.214,8.348 15.166,8.801 14.694,9.069 
		14.243,8.888 	"/>
</g>
</svg>
