<?xml version="1.0" encoding="utf-8"?>
<!-- Generator: Adobe Illustrator 16.0.0, SVG Export Plug-In . SVG Version: 6.00 Build 0)  -->
<!DOCTYPE svg PUBLIC "-//W3C//DTD SVG 1.1//EN" "http://www.w3.org/Graphics/SVG/1.1/DTD/svg11.dtd">
<svg version="1.1" xmlns="http://www.w3.org/2000/svg" xmlns:xlink="http://www.w3.org/1999/xlink" x="0px" y="0px" width="38px"
	 height="37.625px" viewBox="0 0 38 37.625" enable-background="new 0 0 38 37.625" xml:space="preserve">
<g id="hand">
	<g>
		<path fill="#343434" d="M27.119,20.615c-0.018,0.307-0.145,0.932-1.283,0.932h-1.311c-0.172,0-0.325,0.145-0.325,0.316
			c0,0.17,0.153,0.315,0.325,0.315h1.265c0.976,0,1.103,0.795,1.039,1.175c-0.081,0.471-0.308,1.365-1.399,1.365h-1.556
			c-0.181,0-0.325,0.145-0.325,0.316c0,0.18,0.145,0.326,0.325,0.326h1.284c1.102,0,1.003,0.813,0.849,1.301
			c-0.208,0.643-0.334,1.238-1.726,1.238h-1.057c-0.182,0-0.326,0.145-0.326,0.314c0,0.172,0.145,0.316,0.326,0.316h1.021
			c0.714,0,0.741,0.66,0.668,0.896c-0.081,0.262-0.172,0.451-0.181,0.459c-0.199,0.344-0.516,0.551-1.185,0.551h-3.562
			c-1.78,0-3.561-0.396-3.605-0.406c-2.701-0.604-2.847-0.65-3.009-0.705c0,0-0.552-0.09-0.552-0.551l-0.01-8.786
			c0-0.298,0.199-0.56,0.516-0.66l0.135-0.045c2.973-1.202,3.877-3.841,3.904-6.001c0.009-0.307,0.244-0.642,0.65-0.642
			c0.688,0,1.906,1.355,1.906,3.019c0,1.509-0.063,1.771-0.605,3.335c6.517,0,6.463,0.099,7.041,0.244
			c0.713,0.198,0.776,0.777,0.776,0.975C27.137,20.434,27.127,20.397,27.119,20.615z M12.162,29.807c0,0.352-0.289,0.633-0.65,0.633
			H9.561c-0.361,0-0.651-0.281-0.651-0.633V19.64c0-0.353,0.29-0.642,0.651-0.642h1.951c0.361,0,0.65,0.289,0.65,0.642V29.807z
			 M26.585,18.031c-0.813-0.208-2.72-0.208-5.521-0.28c0.135-0.596,0.162-1.13,0.162-2.087c0-2.277-1.699-4.284-3.207-4.284
			c-1.058,0-1.935,0.85-1.953,1.889c-0.008,1.284-0.416,3.489-2.603,4.609c-0.161,0.082-0.614,0.307-0.687,0.334l0.035,0.027
			c-0.342-0.289-0.813-0.506-1.301-0.506H9.561c-1.076,0-1.953,0.859-1.953,1.907v10.167c0,1.049,0.877,1.906,1.953,1.906h1.951
			c0.777,0,1.428-0.461,1.735-1.102l0.036,0.008l0.154,0.045h0.026c0.38,0.09,1.103,0.264,2.64,0.605
			c0.334,0.072,2.078,0.443,3.887,0.443h3.561c1.084,0,1.871-0.406,2.332-1.229c0.01-0.01,0.154-0.299,0.28-0.688
			c0.09-0.289,0.126-0.695,0.019-1.111c0.695-0.471,0.922-1.186,1.065-1.646c0.244-0.75,0.172-1.318,0-1.726
			c0.397-0.36,0.731-0.922,0.868-1.762c0.09-0.524,0-1.058-0.254-1.509c0.371-0.398,0.543-0.914,0.562-1.383l0.009-0.127
			c0-0.09,0.01-0.136,0.01-0.315C28.438,19.413,27.869,18.382,26.585,18.031z"/>
	</g>
</g>
<g id="hand_x5F_exclamation">
	<g>
		<path fill="#EB5E1D" d="M25.456,15.157v-1.112h-1.112v1.112H25.456z M25.085,12.934l0.371-4.953V5.912h-1.112V7.98l0.371,4.953
			H25.085z"/>
	</g>
</g>
</svg>
