<?xml version="1.0" encoding="utf-8"?>
<!-- Generator: Adobe Illustrator 16.0.0, SVG Export Plug-In . SVG Version: 6.00 Build 0)  -->
<!DOCTYPE svg PUBLIC "-//W3C//DTD SVG 1.1//EN" "http://www.w3.org/Graphics/SVG/1.1/DTD/svg11.dtd">
<svg version="1.1" xmlns="http://www.w3.org/2000/svg" xmlns:xlink="http://www.w3.org/1999/xlink" x="0px" y="0px" width="38px"
	 height="37.625px" viewBox="0 0 38 37.625" enable-background="new 0 0 38 37.625" xml:space="preserve">
<g id="monitor_x5F_selection">
	<g>
		<g>
			<polyline fill="none" stroke="#343434" stroke-width="0.2" stroke-miterlimit="10" points="30.396,22.697 30.396,23.197 
				29.896,23.197 			"/>
			
				<line fill="none" stroke="#343434" stroke-width="0.2" stroke-miterlimit="10" stroke-dasharray="1.0405,2.0811" x1="27.815" y1="23.197" x2="10.127" y2="23.197"/>
			<polyline fill="none" stroke="#343434" stroke-width="0.2" stroke-miterlimit="10" points="9.086,23.197 8.586,23.197 
				8.586,22.697 			"/>
			
				<line fill="none" stroke="#343434" stroke-width="0.2" stroke-miterlimit="10" stroke-dasharray="1.0454,2.0907" x1="8.586" y1="20.605" x2="8.586" y2="12.243"/>
			<polyline fill="none" stroke="#343434" stroke-width="0.2" stroke-miterlimit="10" points="8.586,11.198 8.586,10.698 
				9.086,10.698 			"/>
			
				<line fill="none" stroke="#343434" stroke-width="0.2" stroke-miterlimit="10" stroke-dasharray="1.0405,2.0811" x1="11.168" y1="10.698" x2="28.856" y2="10.698"/>
			<polyline fill="none" stroke="#343434" stroke-width="0.2" stroke-miterlimit="10" points="29.896,10.698 30.396,10.698 
				30.396,11.198 			"/>
			
				<line fill="none" stroke="#343434" stroke-width="0.2" stroke-miterlimit="10" stroke-dasharray="1.0454,2.0907" x1="30.396" y1="13.288" x2="30.396" y2="21.65"/>
		</g>
	</g>
</g>
<g id="monitor">
	<path fill="#343434" d="M35.91,8.368c0-1.01-1.404-2.064-2.328-2.021H5.203c-0.966-0.044-2.24,0.922-2.329,1.977
		c0,0.088,0,0.22-0.043,0.307v17.881c0,0.088,0.088,0.351,0.088,0.482c0.087,1.01,1.493,1.8,2.24,1.8h10.392v1.431h-1.659
		c-0.153,0-0.276,0.117-0.276,0.264v0.527c0,0.146,0.123,0.265,0.276,0.265h11.222c0.153,0,0.275-0.119,0.275-0.265v-0.527
		c0-0.146-0.123-0.264-0.275-0.264h-1.73v-1.431h10.244c0.131,0,0.219-0.088,0.352-0.088c1.01-0.087,1.977-1.317,2.021-2.283V8.675
		C35.998,8.543,35.91,8.455,35.91,8.368z M3.885,8.06c0.22-0.659,0.967-0.791,1.406-0.835h28.203
		c0.834-0.044,1.627,0.835,1.627,1.538v17.5H3.709v-17.5C3.754,8.543,3.797,8.236,3.885,8.06z"/>
</g>
<g id="monitor_x5F_arrow">
	<polygon fill="#343434" points="30.31,10.897 32.418,12.518 31.533,12.629 32.117,13.026 31.414,13.532 31.186,12.873 30.66,13.43 
			"/>
</g>
<g id="monitor_x5F_exclamation">
	<g>
		<path fill="#EB5E1D" d="M20.258,21.15v-1.111h-1.119v1.111H20.258z M19.885,18.929l0.373-4.956v-2.075h-1.117v2.075l0.373,4.956
			H19.885z"/>
	</g>
</g>
</svg>
