<?xml version="1.0" encoding="utf-8"?>
<!-- Generator: Adobe Illustrator 16.0.0, SVG Export Plug-In . SVG Version: 6.00 Build 0)  -->
<!DOCTYPE svg PUBLIC "-//W3C//DTD SVG 1.1//EN" "http://www.w3.org/Graphics/SVG/1.1/DTD/svg11.dtd">
<svg version="1.1" xmlns="http://www.w3.org/2000/svg" xmlns:xlink="http://www.w3.org/1999/xlink" x="0px" y="0px" width="38px"
	 height="37.625px" viewBox="0 0 38 37.625" enable-background="new 0 0 38 37.625" xml:space="preserve">
<g id="devices">
	<rect x="4.016" y="18.702" fill="#343434" width="1.691" height="0.429"/>
	<ellipse fill="#343434" cx="4.861" cy="29.68" rx="0.424" ry="0.431"/>
	<circle fill="#343434" cx="30.031" cy="29.25" r="0.38"/>
	<path fill="#343434" d="M35.252,14.583H28.09v-2.622c0-1.223-0.559-1.792-1.758-1.792H7.44c-1.198,0-1.757,0.569-1.757,1.792v5.612
		H2.379c-0.478-0.096-1.336,0.715-1.24,1.192v11.163c0,0.62,0.954,1.288,1.479,1.24h4.484c0.667,0,1.525-0.572,1.525-1.479v-4.221
		h5.477v1.243h-1.35c-0.104,0-0.192,0.089-0.192,0.195v0.389c0,0.109,0.088,0.197,0.192,0.197h7.832c0.104,0,0.19-0.088,0.19-0.197
		v-0.389c0-0.106-0.086-0.195-0.19-0.195h-1.092v-1.243h4.088v3.551c0,1.104,0.528,1.642,1.617,1.642h10.053
		c1.088,0,1.617-0.537,1.617-1.642V16.225C36.869,15.121,36.34,14.583,35.252,14.583z M35.252,15.347
		c0.59,0,0.803,0.146,0.846,0.649H24.354c0.043-0.503,0.256-0.649,0.846-0.649H35.252z M2.426,18.146h4.818
		c0.332-0.095,0.811,0.429,0.811,0.811v0.603H1.709V18.86C1.806,18.623,2.093,18.099,2.426,18.146z M8.056,19.992v8.591H1.711
		v-8.591H8.056z M7.388,30.549H2.33c-0.19-0.095-0.619-0.478-0.619-0.668v-0.868h6.345v0.677
		C7.959,29.833,7.769,30.549,7.388,30.549z M23.582,16.225v7.886H8.627v-5.154c0-0.477-0.524-1.431-1.287-1.383H6.447v-5.612
		c0-0.798,0.223-1.029,0.993-1.029h18.892c0.771,0,0.996,0.231,0.996,1.029v2.622h-2.129C24.11,14.583,23.582,15.121,23.582,16.225z
		 M36.106,29.021c0,0.689-0.185,0.877-0.854,0.877H25.199c-0.67,0-0.854-0.188-0.854-0.877v-0.494h11.762L36.106,29.021
		L36.106,29.021z M36.106,28.061H24.345V16.459h11.762V28.061z"/>
</g>
<g id="devices_x5F_shine">
	<g>
		<path fill="#EB5E1D" d="M17.184,2.504c0-0.143,0.113-0.259,0.257-0.259h0.515c0.141,0,0.254,0.116,0.254,0.259V5.1
			c0,0.145-0.113,0.26-0.254,0.26H17.44c-0.144,0-0.257-0.115-0.257-0.26V2.504z"/>
	</g>
	<g>
		<path fill="#EB5E1D" d="M9.803,4.041C9.769,3.91,9.826,3.773,9.931,3.738l0.385-0.13c0.106-0.036,0.222,0.042,0.259,0.174
			l0.641,2.379c0.035,0.131-0.021,0.267-0.129,0.303l-0.385,0.13c-0.106,0.034-0.222-0.042-0.256-0.174L9.803,4.041z"/>
	</g>
	<g>
		<path fill="#EB5E1D" d="M3.482,7.037C3.4,6.936,3.416,6.796,3.518,6.728l0.37-0.252C3.988,6.407,4.14,6.432,4.224,6.533
			l1.503,1.824c0.082,0.101,0.066,0.238-0.034,0.309l-0.37,0.25C5.219,8.985,5.07,8.961,4.986,8.859L3.482,7.037z"/>
	</g>
	<g>
		<path fill="#EB5E1D" d="M31.396,7.815c0.082-0.101,0.066-0.239-0.033-0.309l-0.371-0.252c-0.102-0.069-0.252-0.044-0.336,0.057
			l-1.502,1.824c-0.084,0.101-0.068,0.239,0.035,0.309l0.368,0.252c0.103,0.069,0.252,0.044,0.336-0.057L31.396,7.815z"/>
	</g>
	<g>
		<path fill="#EB5E1D" d="M24.819,4.041c0.036-0.131-0.021-0.267-0.128-0.303l-0.385-0.13c-0.105-0.036-0.223,0.042-0.256,0.174
			l-0.643,2.379c-0.035,0.131,0.022,0.267,0.129,0.303l0.383,0.13c0.107,0.034,0.222-0.042,0.259-0.174L24.819,4.041z"/>
	</g>
</g>
<g id="devices_x5F_exclamation">
	<g>
		<path fill="#EB5E1D" d="M17.44,19.896v-0.778H16.67v0.778H17.44z M17.184,18.338l0.257-3.477v-1.456H16.67v1.456l0.258,3.477
			H17.184z"/>
	</g>
	<g>
		<path fill="#EB5E1D" d="M5.375,27.424v-0.778H4.604v0.778H5.375z M5.119,25.866l0.256-3.475v-1.458H4.604v1.458l0.256,3.475H5.119
			z"/>
	</g>
	<g>
		<path fill="#EB5E1D" d="M30.533,25.866v-0.777h-0.771v0.777H30.533z M30.274,24.309l0.259-3.477v-1.457h-0.771v1.457l0.257,3.477
			H30.274z"/>
	</g>
</g>
</svg>
